HIERARCHY
ROOT Hips
{
	OFFSET -0.001795 -0.223333 0.028219
	CHANNELS 6 Xposition Yposition Zposition Zrotation Yrotation Xrotation 
	JOINT LeftUpLeg
	{
		OFFSET 0.069520 -0.091406 -0.006815
		CHANNELS 3 Zrotation Yrotation Xrotation
		JOINT LeftLeg
		{
			OFFSET 0.034277 -0.375199 -0.004496
			CHANNELS 3 Zrotation Yrotation Xrotation
			JOINT LeftFoot
			{
				OFFSET -0.013596 -0.397961 -0.043693
				CHANNELS 3 Zrotation Yrotation Xrotation
				JOINT LeftToe
				{
					OFFSET 0.026358 -0.055791 0.119288
					CHANNELS 3 Zrotation Yrotation Xrotation
					End Site
					{
						OFFSET 0.000000 0.000000 0.000000
					}
				}
			}
		}
	}
	JOINT RightUpLeg
	{
		OFFSET -0.067670 -0.090522 -0.004320
		CHANNELS 3 Zrotation Yrotation Xrotation
		JOINT RightLeg
		{
			OFFSET -0.038290 -0.382569 -0.008850
			CHANNELS 3 Zrotation Yrotation Xrotation
			JOINT RightFoot
			{
				OFFSET 0.015774 -0.398415 -0.042312
				CHANNELS 3 Zrotation Yrotation Xrotation
				JOINT RightToe
				{
					OFFSET -0.025372 -0.048144 0.123348
					CHANNELS 3 Zrotation Yrotation Xrotation
					End Site
					{
						OFFSET 0.000000 0.000000 0.000000
					}
				}
			}
		}
	}
	JOINT Spine
	{
		OFFSET -0.002533 0.108963 -0.026696
		CHANNELS 3 Zrotation Yrotation Xrotation
		JOINT Spine1
		{
			OFFSET 0.005487 0.135180 0.001092
			CHANNELS 3 Zrotation Yrotation Xrotation
			JOINT Spine2
			{
				OFFSET 0.001457 0.052922 0.025425
				CHANNELS 3 Zrotation Yrotation Xrotation
				JOINT Neck
				{
					OFFSET -0.002778 0.213870 -0.042857
					CHANNELS 3 Zrotation Yrotation Xrotation
					JOINT Head
					{
						OFFSET 0.005152 0.064970 0.051349
						CHANNELS 3 Zrotation Yrotation Xrotation
						End Site
						{
							OFFSET 0.000000 0.000000 0.000000
						}
					}
				}
				JOINT LeftShoulder
				{
					OFFSET 0.078845 0.121749 -0.034090
					CHANNELS 3 Zrotation Yrotation Xrotation
					JOINT LeftArm
					{
						OFFSET 0.090977 0.030469 -0.008868
						CHANNELS 3 Zrotation Yrotation Xrotation
						JOINT LeftForeArm
						{
							OFFSET 0.259612 -0.012772 -0.027456
							CHANNELS 3 Zrotation Yrotation Xrotation
							JOINT LeftHand
							{
								OFFSET 0.249234 0.008986 -0.001171
								CHANNELS 3 Zrotation Yrotation Xrotation
								End Site
								{
									OFFSET 0.000000 0.000000 0.000000
								}
							}
						}
					}
				}
				JOINT RightShoulder
				{
					OFFSET -0.081759 0.118833 -0.038615
					CHANNELS 3 Zrotation Yrotation Xrotation
					JOINT RightArm
					{
						OFFSET -0.096012 0.032551 -0.009143
						CHANNELS 3 Zrotation Yrotation Xrotation
						JOINT RightForeArm
						{
							OFFSET -0.253742 -0.013329 -0.021401
							CHANNELS 3 Zrotation Yrotation Xrotation
							JOINT RightHand
							{
								OFFSET -0.255298 0.007772 -0.005559
								CHANNELS 3 Zrotation Yrotation Xrotation
								End Site
								{
									OFFSET 0.000000 0.000000 0.000000
								}
							}
						}
					}
				}
			}
		}
	}
}
MOTION
Frames: 16
Frame Time: 0.050000
0.000000 0.940552 0.000000 -0.648292 -2.247183 5.836068 6.312284 -0.230646 -2.835591 0.601205 0.061226 -3.282176 0.375863 6.463628 17.765250 0.000000 0.000000 0.000000 -3.926795 0.430434 -4.114118 -3.085929 0.057762 -3.783073 -2.004431 -9.475562 13.559487 0.000000 0.000000 0.000000 5.684261 0.162978 -3.379225 -3.002878 1.393403 -1.918601 -4.103794 4.143545 -1.279607 4.689085 -3.305752 -2.202424 0.000000 0.000000 0.000000 -19.948485 -0.185039 -3.031159 -50.731142 -4.160201 -3.521631 -8.639331 -14.478937 1.492193 0.000000 0.000000 0.000000 18.659599 -6.698105 -4.630342 57.917148 1.542595 -4.269802 9.471596 19.137148 2.133075 0.000000 0.000000 0.000000 
0.000137 0.940009 0.000469 -0.853959 -3.081276 6.675618 6.268876 -0.219230 -2.497442 0.911955 0.113604 -5.106010 0.793493 7.012550 18.106356 0.000000 0.000000 0.000000 -3.914571 0.517144 -5.218697 -2.866305 0.045140 -3.673460 -1.661675 -8.943073 13.414546 0.000000 0.000000 0.000000 6.948245 0.269121 -4.434513 -4.082841 1.881875 -1.640938 -4.664211 4.630235 -1.884848 4.265325 -2.985649 -2.142665 0.000000 0.000000 0.000000 -20.937335 0.523791 -3.641730 -49.604435 -4.365846 -3.256463 -9.344600 -14.128722 1.532844 0.000000 0.000000 0.000000 18.482788 -7.880783 -5.224851 58.792309 0.657258 -4.674030 9.642010 19.090427 2.153948 0.000000 0.000000 0.000000 
0.000246 0.939994 0.000628 -0.526788 -2.626211 6.527261 5.953622 -0.238105 -2.859791 0.904261 0.082702 -4.374536 0.571701 6.725852 17.944676 0.000000 0.000000 0.000000 -4.174972 0.517333 -5.300296 -2.994790 0.095118 -3.072088 -1.949270 -9.346175 13.210681 0.000000 0.000000 0.000000 6.679761 0.249500 -4.285894 -3.912492 1.776285 -2.883559 -4.974933 4.097702 -0.958413 3.662883 -2.622537 -1.644335 0.000000 0.000000 0.000000 -20.862061 0.173638 -3.333597 -49.713758 -4.275656 -3.413117 -8.648552 -13.658050 1.415825 0.000000 0.000000 0.000000 19.597800 -7.225700 -5.060294 57.612463 0.392667 -4.847492 9.460419 19.400422 2.164587 0.000000 0.000000 0.000000 
0.000247 0.940187 0.000755 -0.509729 -2.554183 7.129035 6.081322 -0.261947 -3.266907 0.665075 0.119779 -4.840576 0.510018 6.703066 18.201724 0.000000 0.000000 0.000000 -4.256944 0.579021 -6.178658 -2.890436 0.115055 -2.636615 -2.030358 -9.492186 13.242378 0.000000 0.000000 0.000000 6.880469 0.299836 -4.869904 -4.488469 2.048666 -2.164686 -4.618036 3.312426 -2.249707 2.788502 -2.149872 -0.249478 0.000000 0.000000 0.000000 -20.926073 0.945376 -3.602821 -50.289995 -5.239990 -2.977036 -7.661795 -12.717922 1.218592 0.000000 0.000000 0.000000 18.266707 -7.555031 -5.246478 58.166221 -0.129173 -4.959054 10.719695 19.498817 2.328559 0.000000 0.000000 0.000000 
0.000170 0.940777 0.000769 -0.331342 -2.041449 7.000630 5.770029 -0.279825 -3.537803 0.968389 0.076999 -4.326912 0.226386 6.387796 18.249673 0.000000 0.000000 0.000000 -4.266359 0.560860 -5.986345 -3.132210 0.141988 -2.553154 -2.257752 -9.872661 13.416096 0.000000 0.000000 0.000000 6.497425 0.272449 -4.675774 -4.059619 1.853636 -2.382079 -4.920702 2.917671 -2.051054 2.303377 -1.668364 -1.036636 0.000000 0.000000 0.000000 -20.745557 0.722930 -3.432397 -50.706681 -5.921486 -2.751522 -7.777386 -12.289234 1.192312 0.000000 0.000000 0.000000 18.245803 -7.682464 -5.316477 58.215537 -0.236840 -5.034317 10.562371 19.516292 2.306367 0.000000 0.000000 0.000000 
0.000076 0.941265 0.000774 -0.239067 -1.881700 7.272132 5.766848 -0.294567 -3.766673 0.835532 0.095256 -4.521966 0.095775 6.285235 18.505578 0.000000 0.000000 0.000000 -4.234289 0.562141 -5.984486 -3.342056 0.125784 -3.039600 -2.291448 -9.986188 13.738533 0.000000 0.000000 0.000000 6.362777 0.281858 -4.853101 -4.133323 1.876355 -2.778563 -4.730543 2.672926 -1.809065 2.089665 -1.538165 -0.791754 0.000000 0.000000 0.000000 -21.118406 0.958888 -3.557853 -50.783475 -6.475615 -2.549515 -7.695391 -11.748760 1.135270 0.000000 0.000000 0.000000 17.864166 -7.846937 -5.383270 58.656146 -0.497282 -5.213851 10.529975 19.489979 2.291889 0.000000 0.000000 0.000000 
-0.000009 0.941405 0.000680 -0.215294 -1.550958 7.369084 5.651246 -0.312425 -4.048911 1.067779 0.071645 -4.345818 -0.061919 6.107835 18.492668 0.000000 0.000000 0.000000 -4.079617 0.559183 -5.947639 -3.608196 0.136776 -3.187299 -2.434859 -10.229959 13.889219 0.000000 0.000000 0.000000 6.199619 0.272890 -4.831654 -3.972385 1.814334 -2.398160 -4.810027 2.179111 -2.137872 1.986967 -1.394230 -1.292724 0.000000 0.000000 0.000000 -21.006703 0.868858 -3.430334 -51.014901 -6.700109 -2.451018 -7.970395 -11.780076 1.168708 0.000000 0.000000 0.000000 17.857372 -7.827242 -5.434667 58.942610 -0.881006 -5.393271 10.452551 19.835307 2.310685 0.000000 0.000000 0.000000 
-0.000082 0.941608 0.000522 -0.286968 -1.101539 7.625313 5.600380 -0.339432 -4.487646 1.395777 0.044630 -4.245545 -0.269216 5.881942 18.497217 0.000000 0.000000 0.000000 -3.866098 0.566833 -6.050505 -3.777256 0.138718 -3.362275 -2.626485 -10.559641 14.133478 0.000000 0.000000 0.000000 6.064296 0.272760 -4.937383 -3.781514 1.730351 -2.360164 -4.847952 1.969079 -2.273128 1.972486 -1.411824 -1.052432 0.000000 0.000000 0.000000 -21.041106 0.625252 -3.320580 -50.955508 -7.058041 -2.276353 -8.517497 -11.896697 1.234148 0.000000 0.000000 0.000000 17.969509 -8.081358 -5.581789 59.132219 -1.254712 -5.577601 10.481798 19.893683 2.323506 0.000000 0.000000 0.000000 
-0.000140 0.941785 0.000334 -0.281020 -0.986606 7.639737 5.516281 -0.352154 -4.726736 1.561004 0.017234 -3.916255 -0.314949 5.831009 18.479941 0.000000 0.000000 0.000000 -3.859097 0.552665 -5.847399 -3.774773 0.111877 -3.739090 -2.645810 -10.612253 14.308199 0.000000 0.000000 0.000000 5.892122 0.250605 -4.738849 -3.594578 1.643587 -2.636676 -4.821301 2.040600 -2.204241 2.089005 -1.474903 -1.248741 0.000000 0.000000 0.000000 -20.810890 0.346403 -3.163538 -51.048911 -7.361274 -2.155422 -9.284132 -11.963459 1.316581 0.000000 0.000000 0.000000 18.143271 -8.135565 -5.612684 58.974639 -1.468960 -5.674625 10.552567 19.835627 2.333300 0.000000 0.000000 0.000000 
-0.000190 0.941936 0.000184 -0.309924 -0.706425 7.672076 5.495293 -0.369840 -5.052732 1.712581 -0.012650 -3.522939 -0.434810 5.688880 18.420140 0.000000 0.000000 0.000000 -3.800094 0.549820 -5.820154 -3.772797 0.110923 -3.769052 -2.768283 -10.808660 14.417376 0.000000 0.000000 0.000000 5.840880 0.245916 -4.729818 -3.546302 1.625971 -2.433487 -4.739978 1.948555 -2.362004 2.159597 -1.507402 -1.400885 0.000000 0.000000 0.000000 -20.359235 0.210268 -3.033600 -51.330575 -7.693930 -2.019572 -10.151868 -12.228890 1.434221 0.000000 0.000000 0.000000 18.183993 -7.989388 -5.538209 58.932326 -1.596624 -5.717906 10.653294 19.970588 2.366673 0.000000 0.000000 0.000000 
-0.000218 0.942113 0.000066 -0.351754 -0.559435 7.703747 5.614925 -0.373728 -5.141668 1.612828 -0.005857 -3.494500 -0.515886 5.602771 18.449855 0.000000 0.000000 0.000000 -3.778682 0.548817 -5.812819 -3.700611 0.103951 -3.808921 -2.823843 -10.905999 14.521218 0.000000 0.000000 0.000000 5.852286 0.235203 -4.631318 -3.513969 1.611428 -2.475686 -4.704245 2.098812 -2.405162 2.242929 -1.539382 -1.625160 0.000000 0.000000 0.000000 -20.173776 -0.068622 -2.915157 -51.386958 -7.826142 -1.950254 -10.854908 -12.751506 1.566570 0.000000 0.000000 0.000000 18.159359 -8.019678 -5.505377 58.893335 -1.659002 -5.736270 10.905400 19.922776 2.410333 0.000000 0.000000 0.000000 
-0.000206 0.942033 -0.000025 -0.381523 -0.481208 7.740695 5.891942 -0.378742 -5.351668 1.197332 0.014656 -3.232932 -0.537364 5.561667 18.373674 0.000000 0.000000 0.000000 -3.862266 0.545430 -5.772458 -3.482508 0.080222 -3.937828 -2.855906 -10.954714 14.548489 0.000000 0.000000 0.000000 5.854887 0.232631 -4.622225 -3.341343 1.537704 -2.239186 -4.637158 2.243326 -2.681414 2.889171 -1.985957 -1.879526 0.000000 0.000000 0.000000 -19.812887 0.044362 -2.971447 -51.574515 -7.750001 -1.964091 -11.410281 -13.378358 1.701176 0.000000 0.000000 0.000000 17.913359 -8.130689 -5.495332 58.863902 -1.608625 -5.672336 11.051718 20.069127 2.458906 0.000000 0.000000 0.000000 
-0.000152 0.942270 -0.000120 -0.479496 -0.526313 7.730202 5.993669 -0.375896 -5.345694 1.192787 0.014048 -3.213875 -0.518249 5.594650 18.421801 0.000000 0.000000 0.000000 -3.873351 0.550524 -5.844496 -3.278634 0.074220 -3.819696 -2.820578 -10.908606 14.597473 0.000000 0.000000 0.000000 5.885594 0.229495 -4.579273 -3.319411 1.527915 -2.241123 -4.402021 2.486131 -2.814512 3.316729 -2.297915 -1.915452 0.000000 0.000000 0.000000 -19.731997 0.178823 -3.073051 -51.475946 -7.411173 -2.084402 -12.097508 -14.163794 1.878662 0.000000 0.000000 0.000000 17.986015 -8.283101 -5.558971 58.607932 -1.672474 -5.661609 11.442531 20.150452 2.539488 0.000000 0.000000 0.000000 
-0.000078 0.942282 -0.000235 -0.622165 -0.598543 7.821229 6.078242 -0.379810 -5.489323 1.303748 0.000436 -3.112425 -0.451308 5.667432 18.380528 0.000000 0.000000 0.000000 -3.961162 0.566936 -6.081672 -2.861820 0.058237 -3.615697 -2.790151 -10.860128 14.571393 0.000000 0.000000 0.000000 5.872620 0.232818 -4.626825 -3.124461 1.442075 -2.100925 -4.250743 2.740875 -3.055894 3.933906 -2.752303 -1.935910 0.000000 0.000000 0.000000 -19.451416 0.303101 -3.143474 -51.474396 -7.057461 -2.210630 -12.859332 -14.871254 2.061999 0.000000 0.000000 0.000000 17.645423 -8.385051 -5.528064 58.580147 -1.808708 -5.688596 11.616730 20.616828 2.641987 0.000000 0.000000 0.000000 
-0.000019 0.942607 -0.000330 -0.607987 -0.686585 7.820817 6.049724 -0.378258 -5.464109 1.300710 0.001637 -3.138980 -0.432935 5.714867 18.509260 0.000000 0.000000 0.000000 -4.081733 0.577316 -6.249806 -2.692200 0.062128 -3.356909 -2.751342 -10.805434 14.579842 0.000000 0.000000 0.000000 5.902457 0.228973 -4.581060 -3.105819 1.430993 -2.373521 -4.097129 2.935362 -3.036402 4.135095 -2.961231 -1.577974 0.000000 0.000000 0.000000 -19.252163 0.816372 -3.396666 -51.261437 -6.472763 -2.454930 -13.356031 -15.585690 2.224627 0.000000 0.000000 0.000000 17.335113 -8.533869 -5.538870 58.503258 -1.788022 -5.664216 11.880560 21.016797 2.750558 0.000000 0.000000 0.000000 
0.000042 0.942642 -0.000369 -0.634385 -0.933547 7.689613 6.212058 -0.365331 -5.338298 1.009973 0.019219 -3.016203 -0.311934 5.846644 18.502332 0.000000 0.000000 0.000000 -4.184396 0.575020 -6.221317 -2.496526 0.054091 -3.243265 -2.631249 -10.616234 14.508873 0.000000 0.000000 0.000000 5.930409 0.227181 -4.509806 -3.125365 1.437344 -2.585065 -3.847779 3.170354 -2.840635 4.483173 -3.232476 -1.547808 0.000000 0.000000 0.000000 -19.053884 1.197077 -3.559641 -50.947786 -5.661868 -2.802145 -13.889010 -16.328822 2.405213 0.000000 0.000000 0.000000 17.367834 -8.605468 -5.570102 57.948927 -1.661321 -5.569489 12.424275 21.712719 2.958015 0.000000 0.000000 0.000000 
